<svg fill="none" height="619" viewBox="0 0 619 619" width="619" xmlns="http://www.w3.org/2000/svg" xmlns:xlink="http://www.w3.org/1999/xlink"><linearGradient id="a" gradientUnits="userSpaceOnUse" x1="13.929" x2="605.386" y1="605.265" y2="13.8068"><stop offset="0" stop-color="#796930"/><stop offset=".0001" stop-color="#354185"/><stop offset=".6784" stop-color="#4454ac"/></linearGradient><clipPath id="b"><path d="m124 124h372.498v371.394h-372.498z"/></clipPath><path d="m539.777 619h3.711c38.715 0 70.522-28.997 74.976-66.508l.536-251.295c-4.401-167.094-141.26-301.197-309.445-301.197-170.963 0-309.555 138.568-309.555 309.5 0 169.103 135.642 306.578 304.077 309.5z" fill="url(#a)"/><g clip-path="url(#b)"><path d="m352.855 124v2.003c0 23.521-19.124 42.582-42.709 42.582-23.592 0-42.71-19.067-42.71-42.582 0-.692 0-1.348 0-2.003h-143.436v371.394h372.498v-371.394z" fill="#fff"/><path d="m210.527 324.146h24.687l16.854 89.493h.304l20.257-89.493h23.092l18.296 90.591h.359l19.21-90.591h24.212l-31.462 131.499h-24.498l-18.144-89.493h-.475l-19.422 89.493h-24.955zm175.105 0h38.917l38.65 131.499h-25.466l-8.406-29.262h-44.334l-6.489 29.262h-24.802zm14.814 32.412-10.767 48.245h33.513l-12.362-48.245z" fill="#1e263d"/></g></svg>